<?xml version="1.0" standalone="no"?>
<!DOCTYPE svg PUBLIC "-//W3C//DTD SVG 20010904//EN"
 "http://www.w3.org/TR/2001/REC-SVG-20010904/DTD/svg10.dtd">
<svg version="1.0" xmlns="http://www.w3.org/2000/svg"
 width="1280.000000pt" height="1280.000000pt" viewBox="0 0 1280.000000 1280.000000"
 preserveAspectRatio="xMidYMid meet">
<metadata>
Created by potrace 1.11, written by Peter Selinger 2001-2013
</metadata>
<g transform="translate(0.000000,1280.000000) scale(0.100000,-0.100000)"
fill="#000000" stroke="none">
<path d="M6014 11608 c-208 -121 -476 -277 -594 -346 -362 -211 -384 -223
-425 -247 -22 -12 -213 -124 -425 -247 -212 -124 -428 -250 -480 -280 -149
-87 -433 -252 -689 -401 -129 -76 -236 -137 -238 -137 -2 0 -16 -9 -31 -19
-22 -16 -320 -189 -442 -258 -51 -29 -193 -112 -210 -123 -8 -5 -37 -22 -65
-38 -27 -16 -90 -52 -140 -81 -49 -29 -117 -69 -150 -88 -33 -19 -73 -42 -90
-52 -67 -40 -232 -135 -267 -154 l-38 -21 0 -2720 1 -2721 147 -84 c81 -46
163 -94 182 -106 19 -12 148 -88 285 -168 138 -79 266 -154 285 -166 19 -11
42 -24 50 -28 8 -4 71 -40 139 -80 67 -40 125 -73 128 -73 2 0 24 -13 48 -30
24 -16 46 -30 49 -30 3 0 50 -26 103 -58 54 -32 235 -138 403 -236 168 -97
312 -181 320 -186 131 -80 185 -107 190 -94 3 7 5 618 4 1357 l-1 1343 230
135 c127 74 235 136 241 138 6 2 22 12 36 21 14 9 45 28 70 42 25 14 106 61
180 105 74 44 155 91 180 105 25 14 110 64 190 110 80 47 161 95 180 106 46
26 241 140 260 152 17 10 414 241 470 273 173 97 290 171 283 177 -6 6 -1419
832 -1608 940 -16 9 -167 97 -335 195 -168 98 -320 185 -337 194 -18 8 -33 18
-33 21 0 7 17 17 209 131 74 43 137 79 140 79 4 0 22 11 41 23 19 13 55 35 80
49 25 14 209 121 410 238 201 117 379 221 395 230 17 10 152 88 300 175 149
87 286 167 305 177 19 11 100 59 180 106 80 46 165 96 190 110 25 14 57 33 72
43 14 11 28 19 31 19 2 0 80 44 173 99 93 54 306 178 474 276 168 97 346 201
395 230 50 29 104 61 122 72 46 27 251 146 283 163 15 9 58 34 96 57 38 22
125 73 194 113 69 40 161 94 205 119 44 26 142 83 217 127 76 43 138 82 138
86 0 3 -12 13 -27 21 -16 7 -228 131 -473 274 -656 383 -1782 1038 -1806 1051
-18 10 -70 -17 -400 -210z"/>
<path d="M8729 10418 c0 -29 0 -642 -1 -1361 0 -1205 -1 -1309 -17 -1315 -9
-3 -43 -22 -76 -42 -33 -20 -85 -50 -115 -67 -30 -17 -93 -53 -140 -80 -47
-28 -123 -73 -170 -100 -193 -113 -458 -267 -495 -288 -22 -13 -269 -157 -550
-320 -280 -164 -524 -306 -542 -316 -33 -19 -95 -56 -128 -76 -11 -7 -35 -20
-53 -29 -18 -9 -34 -20 -37 -24 -4 -6 210 -137 407 -248 18 -11 71 -42 118
-69 47 -28 101 -60 120 -70 19 -11 188 -109 375 -218 187 -109 349 -204 360
-210 11 -5 31 -18 45 -26 23 -15 599 -351 680 -396 201 -114 239 -143 189
-143 -9 0 -19 -4 -21 -8 -1 -4 -34 -26 -73 -47 -38 -22 -79 -45 -90 -52 -11
-7 -27 -15 -35 -19 -8 -4 -31 -17 -50 -30 -65 -40 -261 -154 -266 -154 -3 0
-17 -8 -32 -19 -15 -10 -173 -103 -352 -207 -179 -103 -356 -206 -395 -229
-38 -23 -99 -58 -135 -79 -36 -20 -72 -41 -80 -46 -18 -12 -257 -151 -383
-224 -49 -28 -96 -55 -105 -61 -10 -5 -40 -23 -67 -39 -28 -16 -90 -52 -140
-81 -49 -29 -184 -108 -300 -175 -115 -67 -250 -146 -300 -175 -49 -29 -106
-62 -125 -72 -19 -11 -111 -65 -205 -120 -168 -99 -748 -437 -855 -498 -30
-18 -149 -87 -265 -155 -115 -67 -228 -132 -250 -145 -88 -49 -105 -60 -105
-65 0 -6 155 -100 165 -100 3 0 11 -5 18 -10 7 -6 129 -79 272 -162 143 -82
355 -206 470 -273 116 -68 361 -210 545 -318 184 -107 351 -204 370 -215 19
-12 46 -27 60 -35 14 -8 76 -44 138 -80 62 -37 132 -78 155 -91 23 -13 63 -35
88 -50 l45 -26 135 79 c74 42 395 230 714 416 319 186 598 348 620 361 43 24
241 138 265 153 12 8 271 159 352 206 10 6 75 44 145 85 71 41 137 80 148 86
22 12 645 375 1045 609 63 37 142 83 175 102 33 18 67 38 75 43 23 14 206 122
283 166 38 21 83 47 100 58 18 10 117 68 222 129 104 60 208 120 230 133 22
13 66 39 97 57 l58 32 0 2720 0 2720 -313 181 c-171 100 -447 260 -612 356
-165 96 -325 189 -355 207 -30 17 -62 36 -70 41 -8 5 -64 37 -124 72 -60 35
-125 73 -145 85 -20 13 -43 26 -51 30 -12 5 -110 62 -240 138 -14 8 -72 42
-130 76 -58 33 -114 66 -124 72 -11 7 -43 26 -70 43 -102 62 -96 62 -97 2z"/>
</g>
</svg>
