<svg version="1" xmlns="http://www.w3.org/2000/svg" width="1706.667" height="1706.667" viewBox="0 0 1280.000000 1280.000000"><path d="M601.4 119.2c-20.8 12.1-47.6 27.7-59.4 34.6-36.2 21.1-38.4 22.3-42.5 24.7-2.2 1.2-21.3 12.4-42.5 24.7-21.2 12.4-42.8 25-48 28-14.9 8.7-43.3 25.2-68.9 40.1-12.9 7.6-23.6 13.7-23.8 13.7-.2 0-1.6.9-3.1 1.9-2.2 1.6-32 18.9-44.2 25.8-5.1 2.9-19.3 11.2-21 12.3-.8.5-3.7 2.2-6.5 3.8-2.7 1.6-9 5.2-14 8.1-4.9 2.9-11.7 6.9-15 8.8-3.3 1.9-7.3 4.2-9 5.2-6.7 4-23.2 13.5-26.7 15.4l-3.8 2.1v272l.1 272.1 14.7 8.4c8.1 4.6 16.3 9.4 18.2 10.6 1.9 1.2 14.8 8.8 28.5 16.8 13.8 7.9 26.6 15.4 28.5 16.6 1.9 1.1 4.2 2.4 5 2.8.8.4 7.1 4 13.9 8 6.7 4 12.5 7.3 12.8 7.3.2 0 2.4 1.3 4.8 3 2.4 1.6 4.6 3 4.9 3 .3 0 5 2.6 10.3 5.8 5.4 3.2 23.5 13.8 40.3 23.6 16.8 9.7 31.2 18.1 32 18.6 13.1 8 18.5 10.7 19 9.4.3-.7.5-61.8.4-135.7l-.1-134.3 23-13.5c12.7-7.4 23.5-13.6 24.1-13.8.6-.2 2.2-1.2 3.6-2.1 1.4-.9 4.5-2.8 7-4.2 2.5-1.4 10.6-6.1 18-10.5s15.5-9.1 18-10.5c2.5-1.4 11-6.4 19-11 8-4.7 16.1-9.5 18-10.6 4.6-2.6 24.1-14 26-15.2 1.7-1 41.4-24.1 47-27.3 17.3-9.7 29-17.1 28.3-17.7-.6-.6-141.9-83.2-160.8-94-1.6-.9-16.7-9.7-33.5-19.5s-32-18.5-33.7-19.4c-1.8-.8-3.3-1.8-3.3-2.1 0-.7 1.7-1.7 20.9-13.1 7.4-4.3 13.7-7.9 14-7.9.4 0 2.2-1.1 4.1-2.3 1.9-1.3 5.5-3.5 8-4.9 2.5-1.4 20.9-12.1 41-23.8 20.1-11.7 37.9-22.1 39.5-23 1.7-1 15.2-8.8 30-17.5 14.9-8.7 28.6-16.7 30.5-17.7 1.9-1.1 10-5.9 18-10.6 8-4.6 16.5-9.6 19-11 2.5-1.4 5.7-3.3 7.2-4.3 1.4-1.1 2.8-1.9 3.1-1.9.2 0 8-4.4 17.3-9.9 9.3-5.4 30.6-17.8 47.4-27.6 16.8-9.7 34.6-20.1 39.5-23 5-2.9 10.4-6.1 12.2-7.2 4.6-2.7 25.1-14.6 28.3-16.3 1.5-.9 5.8-3.4 9.6-5.7 3.8-2.2 12.5-7.3 19.4-11.3 6.9-4 16.1-9.4 20.5-11.9 4.4-2.6 14.2-8.3 21.7-12.7 7.6-4.3 13.8-8.2 13.8-8.6 0-.3-1.2-1.3-2.7-2.1-1.6-.7-22.8-13.1-47.3-27.4C756.4 165 643.8 99.5 641.4 98.2c-1.8-1-7 1.7-40 21zM872.9 238.2c0 2.9 0 64.2-.1 136.1 0 120.5-.1 130.9-1.7 131.5-.9.3-4.3 2.2-7.6 4.2s-8.5 5-11.5 6.7c-3 1.7-9.3 5.3-14 8-4.7 2.8-12.3 7.3-17 10-19.3 11.3-45.8 26.7-49.5 28.8-2.2 1.3-26.9 15.7-55 32-28 16.4-52.4 30.6-54.2 31.6-3.3 1.9-9.5 5.6-12.8 7.6-1.1.7-3.5 2-5.3 2.9-1.8.9-3.4 2-3.7 2.4-.4.6 21 13.7 40.7 24.8 1.8 1.1 7.1 4.2 11.8 6.9 4.7 2.8 10.1 6 12 7 1.9 1.1 18.8 10.9 37.5 21.8s34.9 20.4 36 21c1.1.5 3.1 1.8 4.5 2.6 2.3 1.5 59.9 35.1 68 39.6 20.1 11.4 23.9 14.3 18.9 14.3-.9 0-1.9.4-2.1.8-.1.4-3.4 2.6-7.3 4.7-3.8 2.2-7.9 4.5-9 5.2-1.1.7-2.7 1.5-3.5 1.9-.8.4-3.1 1.7-5 3-6.5 4-26.1 15.4-26.6 15.4-.3 0-1.7.8-3.2 1.9-1.5 1-17.3 10.3-35.2 20.7-17.9 10.3-35.6 20.6-39.5 22.9-3.8 2.3-9.9 5.8-13.5 7.9-3.6 2-7.2 4.1-8 4.6-1.8 1.2-25.7 15.1-38.3 22.4-4.9 2.8-9.6 5.5-10.5 6.1-1 .5-4 2.3-6.7 3.9-2.8 1.6-9 5.2-14 8.1-4.9 2.9-18.4 10.8-30 17.5-11.5 6.7-25 14.6-30 17.5-4.9 2.9-10.6 6.2-12.5 7.2-1.9 1.1-11.1 6.5-20.5 12-16.8 9.9-74.8 43.7-85.5 49.8-3 1.8-14.9 8.7-26.5 15.5-11.5 6.7-22.8 13.2-25 14.5-8.8 4.9-10.5 6-10.5 6.5 0 .6 15.5 10 16.5 10 .3 0 1.1.5 1.8 1 .7.6 12.9 7.9 27.2 16.2 14.3 8.2 35.5 20.6 47 27.3 11.6 6.8 36.1 21 54.5 31.8 18.4 10.7 35.1 20.4 37 21.5 1.9 1.2 4.6 2.7 6 3.5 1.4.8 7.6 4.4 13.8 8 6.2 3.7 13.2 7.8 15.5 9.1 2.3 1.3 6.3 3.5 8.8 5l4.5 2.6 13.5-7.9c7.4-4.2 39.5-23 71.4-41.6 31.9-18.6 59.8-34.8 62-36.1 4.3-2.4 24.1-13.8 26.5-15.3 1.2-.8 27.1-15.9 35.2-20.6 1-.6 7.5-4.4 14.5-8.5 7.1-4.1 13.7-8 14.8-8.6 2.2-1.2 64.5-37.5 104.5-60.9 6.3-3.7 14.2-8.3 17.5-10.2 3.3-1.8 6.7-3.8 7.5-4.3 2.3-1.4 20.6-12.2 28.3-16.6 3.8-2.1 8.3-4.7 10-5.8 1.8-1 11.7-6.8 22.2-12.9 10.4-6 20.8-12 23-13.3 2.2-1.3 6.6-3.9 9.7-5.7l5.8-3.2v-544l-31.3-18.1c-17.1-10-44.7-26-61.2-35.6-16.5-9.6-32.5-18.9-35.5-20.7-3-1.7-6.2-3.6-7-4.1-.8-.5-6.4-3.7-12.4-7.2s-12.5-7.3-14.5-8.5c-2-1.3-4.3-2.6-5.1-3-1.2-.5-11-6.2-24-13.8-1.4-.8-7.2-4.2-13-7.6-5.8-3.3-11.4-6.6-12.4-7.2-1.1-.7-4.3-2.6-7-4.3-10.2-6.2-9.6-6.2-9.7-.2z"/></svg>